<svg width="22" height="22" viewBox="0 0 22 22" fill="none" xmlns="http://www.w3.org/2000/svg">
<path d="M20 0H2C0.89 0 0 0.9 0 2V20C0 21.1 0.89 22 2 22H20C21.1 22 22 21.1 22 20V2C22 0.9 21.1 0 20 0Z" fill="#0071BC"/>
<path d="M13 9.4C12.99 9.29 12.96 9.19 12.91 9.09C12.9 9.08 12.89 9.06 12.89 9.05C12.84 8.95 12.78 8.85 12.69 8.77C11.91 7.99 10.89 7.61 9.87 7.61C8.85 7.61 7.83 7.99 7.06 8.77L3.46 12.37C1.84 13.99 1.74 16.75 3.44 18.29C4.2 18.98 5.16 19.32 6.12 19.32C7.14 19.32 8.16 18.93 8.94 18.16L10.8 16.3C10.95 16.15 10.88 15.89 10.66 15.84C10.13 15.7 9.62 15.48 9.15 15.18C9.04 15.11 8.9 15.12 8.81 15.21L7.47 16.55C6.83 17.19 5.81 17.35 5.07 16.82C4.14 16.15 4.06 14.84 4.84 14.06L6.89 12L8.59 10.3C8.76 10.13 8.97 10 9.18 9.91C9.29 9.86 9.41 9.83 9.53 9.81C10.1 9.7 10.71 9.87 11.15 10.31C11.57 10.73 12.26 10.73 12.69 10.31C12.84 10.16 12.93 9.98 12.98 9.79C12.98 9.78 12.98 9.78 12.98 9.77C13 9.66 13.01 9.55 13 9.44C13 9.43 13 9.41 13 9.4Z" fill="#F2F2F2"/>
<path d="M18.7 3.85001C17.83 2.98001 16.62 2.56001 15.37 2.72001C14.45 2.83001 13.61 3.31001 12.96 3.96001L11.21 5.70001C11.05 5.86001 11.13 6.11001 11.35 6.17001C11.87 6.31001 12.38 6.53001 12.85 6.83001C12.96 6.90001 13.1 6.89001 13.19 6.79001L14.51 5.47001C15.25 4.73001 16.52 4.67001 17.22 5.44001C17.52 5.77001 17.69 6.20001 17.69 6.66001C17.69 7.14001 17.5 7.60001 17.16 7.94001L16.47 8.63001L13.5 11.6C12.81 12.29 11.55 12.43 10.87 11.71C10.45 11.26 9.74 11.25 9.31 11.69C8.89 12.11 8.89 12.8 9.31 13.23C10.18 14.1 11.39 14.52 12.64 14.36C13.56 14.25 14.39 13.77 15.05 13.12L18 10.17L18.58 9.59001C19.23 8.94001 19.71 8.10001 19.82 7.18001C19.99 5.93001 19.57 4.72001 18.7 3.85001Z" fill="#F2F2F2"/>
</svg>
