<svg width="22" height="22" viewBox="0 0 22 22" fill="none" xmlns="http://www.w3.org/2000/svg">
<rect width="22" height="22" rx="2" fill="white"/>
<path d="M11.0054 7.01047C8.84531 7.01047 7.10297 8.67361 7.10297 10.7355C7.10297 12.7974 8.84531 14.4606 11.0054 14.4606C13.1655 14.4606 14.9078 12.7974 14.9078 10.7355C14.9078 8.67361 13.1655 7.01047 11.0054 7.01047ZM11.0054 13.1573C9.60949 13.1573 8.46831 12.0712 8.46831 10.7355C8.46831 9.39982 9.60609 8.31375 11.0054 8.31375C12.4047 8.31375 13.5425 9.39982 13.5425 10.7355C13.5425 12.0712 12.4013 13.1573 11.0054 13.1573V13.1573ZM15.9777 6.8581C15.9777 7.34116 15.5701 7.72695 15.0674 7.72695C14.5614 7.72695 14.1572 7.33791 14.1572 6.8581C14.1572 6.37829 14.5648 5.98925 15.0674 5.98925C15.5701 5.98925 15.9777 6.37829 15.9777 6.8581ZM18.5623 7.73992C18.5046 6.57605 18.2261 5.5451 17.3328 4.6957C16.443 3.8463 15.3629 3.58046 14.1436 3.5221C12.887 3.45402 9.12041 3.45402 7.86376 3.5221C6.64786 3.57721 5.56782 3.84306 4.67458 4.69246C3.78133 5.54186 3.50623 6.57281 3.44509 7.73668C3.37377 8.93621 3.37377 12.5316 3.44509 13.7311C3.50283 14.895 3.78133 15.9259 4.67458 16.7753C5.56782 17.6247 6.64447 17.8906 7.86376 17.9489C9.12041 18.017 12.887 18.017 14.1436 17.9489C15.3629 17.8938 16.443 17.628 17.3328 16.7753C18.2227 15.9259 18.5012 14.895 18.5623 13.7311C18.6336 12.5316 18.6336 8.93945 18.5623 7.73992V7.73992ZM16.9388 15.0182C16.6739 15.6536 16.1611 16.1431 15.492 16.3993C14.4901 16.7786 12.1126 16.691 11.0054 16.691C9.89818 16.691 7.51733 16.7753 6.5188 16.3993C5.85311 16.1464 5.34026 15.6568 5.07195 15.0182C4.67458 14.0618 4.76628 11.7924 4.76628 10.7355C4.76628 9.67863 4.67797 7.406 5.07195 6.45285C5.33687 5.81742 5.84972 5.32788 6.5188 5.07177C7.52073 4.69246 9.89818 4.77999 11.0054 4.77999C12.1126 4.77999 14.4935 4.6957 15.492 5.07177C16.1577 5.32464 16.6705 5.81418 16.9388 6.45285C17.3362 7.40924 17.2445 9.67863 17.2445 10.7355C17.2445 11.7924 17.3362 14.065 16.9388 15.0182Z" fill="#0071BC"/>
</svg>
