<svg width="22" height="22" viewBox="0 0 22 22" fill="none" xmlns="http://www.w3.org/2000/svg">
<path d="M18 18H15.05V13.38C15.05 12.28 15.03 10.86 13.52 10.86C11.98 10.86 11.75 12.06 11.75 13.3V18H8.81V8.51H11.64V9.81H11.68C12.07 9.06 13.04 8.28 14.47 8.28C17.46 8.28 18.01 10.24 18.01 12.8V18H18ZM5.45 7.15C4.5 7.15 3.73 6.38 3.73 5.43C3.73 4.48 4.5 3.71 5.45 3.71C6.4 3.71 7.17 4.48 7.17 5.43C7.17 6.38 6.4 7.15 5.45 7.15ZM6.95 18H4V8.51H6.95V18ZM20 0H2C0.89 0 0 0.9 0 2V20C0 21.1 0.89 22 2 22H20C21.1 22 22 21.1 22 20V2C22 0.9 21.1 0 20 0Z" fill="white"/>
</svg>
