<svg width="22" height="22" viewBox="0 0 22 22" fill="none" xmlns="http://www.w3.org/2000/svg">
<rect width="22" height="22" rx="2" fill="#0071BC"/>
<g clip-path="url(#clip0_557_1543)">
<path d="M15.6219 7.49889C15.8369 8.28291 15.9015 8.45296 15.9182 8.78243C15.9281 8.97209 15.9496 9.49573 15.7096 10.0557C15.4223 10.7261 14.9113 11.094 14.4575 11.4124C13.5556 12.0452 12.6738 12.2537 11.9646 12.4143C11.0639 12.6183 10.3538 12.6387 9.80105 12.6543C8.85178 12.6813 8.08272 12.6028 7.61561 12.5394C6.91451 12.4442 6.37299 12.313 5.58415 12.1221C5.07446 11.9986 4.65251 11.8833 4.354 11.7987L7.27495 19C8.19283 18.9043 8.95974 18.7572 9.53739 18.6243C10.1869 18.4751 11.1761 18.2425 12.3818 17.7165C13.1655 17.3743 13.7736 17.0248 14.1719 16.7771C14.7776 16.4006 15.3371 16.0528 15.9509 15.4413C16.5875 14.8068 16.9484 14.2219 17.1591 13.8757C17.4877 13.3349 17.7355 12.9277 17.8839 12.3101C18.0439 11.6434 18.0009 11.0961 17.9716 10.7654C17.911 10.0729 17.7325 9.5644 17.6753 9.40866C17.4219 8.7207 17.083 8.26411 16.7858 7.86392C16.6869 7.73067 16.3656 7.30677 15.8632 6.82034C15.738 6.69934 15.6206 6.59225 15.5148 6.49987C15.4541 6.44673 15.3574 6.50109 15.3771 6.57753C15.4404 6.82238 15.5225 7.13591 15.6219 7.49889Z" fill="white"/>
<path d="M14.8323 4.70699L14.8021 4.70985C14.5604 4.73437 14.3165 4.72783 14.0761 4.69104C13.9268 4.66815 13.7544 4.64444 13.5634 4.62319C12.5591 4.51037 11.6769 4.41104 10.6971 4.70126C10.251 4.8337 9.74478 4.98331 9.34649 5.43705C8.98562 5.84827 8.90002 6.28238 8.81916 6.68951C8.78776 6.84934 8.68496 7.41875 8.85228 8.45866C8.88798 8.68062 8.97831 9.18831 9.44542 10.5565C9.60499 11.0237 9.82866 11.6503 10.1207 12.3881C8.23205 12.0489 6.34296 11.7096 4.4543 11.3707C4.26375 10.7698 4.09601 10.0345 4.03708 9.18954C3.98977 8.51016 3.93729 7.64603 4.24569 6.591C4.40655 6.03998 4.61602 5.32341 5.25604 4.60806C5.98166 3.79584 6.83157 3.4676 7.18857 3.33434C8.08409 2.99997 8.83594 2.99711 9.4837 3.00038C10.6313 3.00651 11.4838 3.24891 12.372 3.50153C12.8984 3.65114 13.5165 3.85634 14.1944 4.14207C14.4512 4.25039 14.6813 4.40777 14.8735 4.60234C14.9105 4.63995 14.886 4.70167 14.8323 4.70699Z" fill="white"/>
<path d="M14.3289 9.86989C15.0553 9.03463 14.706 7.62051 13.5486 6.71137C12.3912 5.80223 10.8641 5.74233 10.1376 6.57759C9.41116 7.41285 9.76052 8.82697 10.9179 9.73611C12.0753 10.6453 13.6024 10.7052 14.3289 9.86989Z" fill="white"/>
</g>
<defs>
<clipPath id="clip0_557_1543">
<rect width="14" height="16" fill="white" transform="translate(4 3)"/>
</clipPath>
</defs>
</svg>
