<svg width="22" height="22" viewBox="0 0 22 22" fill="none" xmlns="http://www.w3.org/2000/svg">
<path d="M20 0H2C0.89 0 0 0.9 0 2V20C0 21.1 0.89 22 2 22H20C21.1 22 22 21.1 22 20V2C22 0.9 21.1 0 20 0Z" fill="#0071BC"/>
<path d="M14.13 4.39999C12.28 4.39999 10.77 5.90999 10.77 7.75999C10.77 8.09999 10.89 8.32999 10.89 8.56999C8.11002 8.44999 5.68002 7.06999 4.06002 5.09999C3.71002 5.55999 3.60002 6.13999 3.60002 6.71999C3.60002 7.87999 4.18002 8.79999 5.11002 9.61999C4.53002 9.49999 4.06002 9.37999 3.60002 9.14999C3.60002 10.77 4.75002 12.04 6.26002 12.39C5.92002 12.51 5.69002 12.5 5.34002 12.5C5.22002 12.5 4.99002 12.39 4.76002 12.39C5.22002 13.66 6.38002 14.7 7.89002 14.7C6.73002 15.51 5.23002 16.09 3.72002 16.09H2.90002C4.40002 17.02 6.14002 17.6 7.99002 17.6C14.13 17.6 17.48 12.51 17.48 8.10999V7.64999C18.06 7.18999 18.63 6.60999 19.1 5.90999C18.41 6.25999 17.83 6.36999 17.14 6.48999C17.83 6.02999 18.41 5.44999 18.64 4.63999C18.07 4.98999 17.37 5.32999 16.56 5.44999C15.98 4.74999 15.05 4.39999 14.13 4.39999Z" fill="#F2F2F2"/>
</svg>
