<svg width="22" height="22" viewBox="0 0 22 22" fill="none" xmlns="http://www.w3.org/2000/svg">
<path d="M20 0H2C0.89 0 0 0.9 0 2V20C0 21.1 0.89 22 2 22H20C21.1 22 22 21.1 22 20V2C22 0.9 21.1 0 20 0Z" fill="white"/>
<path d="M14.1304 4.39999C12.2804 4.39999 10.7704 5.90999 10.7704 7.75999C10.7704 8.09999 10.8904 8.32999 10.8904 8.56999C8.11039 8.44999 5.68039 7.06999 4.06039 5.09999C3.71039 5.55999 3.60039 6.13999 3.60039 6.71999C3.60039 7.87999 4.18039 8.79999 5.11039 9.61999C4.53039 9.49999 4.06039 9.37999 3.60039 9.14999C3.60039 10.77 4.75039 12.04 6.26039 12.39C5.92039 12.51 5.69039 12.5 5.34039 12.5C5.22039 12.5 4.99039 12.39 4.76039 12.39C5.22039 13.66 6.38039 14.7 7.89039 14.7C6.73039 15.51 5.23039 16.09 3.72039 16.09H2.90039C4.40039 17.02 6.14039 17.6 7.99039 17.6C14.1304 17.6 17.4804 12.51 17.4804 8.10999V7.64999C18.0604 7.18999 18.6304 6.60999 19.1004 5.90999C18.4104 6.25999 17.8304 6.36999 17.1404 6.48999C17.8304 6.02999 18.4104 5.44999 18.6404 4.63999C18.0704 4.98999 17.3704 5.32999 16.5604 5.44999C15.9804 4.74999 15.0504 4.39999 14.1304 4.39999Z" fill="#0071BC"/>
</svg>
