<svg width="388" height="102" viewBox="0 0 388 102" fill="none" xmlns="http://www.w3.org/2000/svg">
<g clip-path="url(#clip0_590_1616)">
<path d="M231.791 92.0033C210.633 98.1839 188.494 102 163.605 101.993C149.978 101.993 135.526 100.852 119.96 98.336C110.823 96.8565 101.984 95.0936 93.5363 93.0887C81.8416 90.3095 70.8858 87.0671 60.875 83.4791C60.1361 83.2164 59.7595 82.4213 60.0295 81.7024C60.2995 80.9834 61.1165 80.617 61.8554 80.8797C71.7597 84.4262 82.6161 87.6409 94.2113 90.3925C102.588 92.3835 111.355 94.1326 120.428 95.5982C135.853 98.094 150.148 99.2209 163.612 99.2209C188.202 99.2209 210.036 95.46 230.981 89.3416C231.734 89.1204 232.523 89.5352 232.75 90.268C232.971 91.0147 232.544 91.789 231.791 92.0033Z" fill="url(#paint0_linear_590_1616)"/>
<path d="M0.0496572 29.9626C1.36407 25.1854 4.5826 20.9614 9.26475 17.3457C23.8938 6.09069 52.9174 0.0276535 88.506 0C106.19 0 125.48 1.52094 145.374 4.74258C146.148 4.86702 146.674 5.5791 146.546 6.33266C146.418 7.08621 145.686 7.59781 144.912 7.47336C125.16 4.27938 106.02 2.76535 88.506 2.76535C53.2727 2.7377 24.583 8.96665 11.0268 19.5096C6.68566 22.8764 3.90763 26.6096 2.79216 30.6747C2.58612 31.4144 1.81168 31.8499 1.05145 31.6564C0.29833 31.4559 -0.156386 30.7023 0.0496572 29.9626Z" fill="url(#paint1_linear_590_1616)"/>
<path d="M94.5808 86.2444C60.8182 77.7548 32.8603 64.6194 21.2721 49.5966C18.8707 46.4648 17.2863 43.3676 16.519 40.3258C16.1637 38.9223 15.9861 37.5258 15.9861 36.157C15.9861 33.4331 16.6895 30.8129 18.0252 28.3725C18.3947 27.7019 19.2543 27.4461 19.9506 27.8056C20.6398 28.1651 20.9027 29.0016 20.5332 29.6792C19.3964 31.7532 18.8281 33.8963 18.8281 36.157C18.8281 37.2977 18.9773 38.4661 19.2757 39.669C19.9293 42.2684 21.3219 45.0407 23.5457 47.9443C34.2386 61.9715 61.8555 75.2314 95.2842 83.5689C96.0444 83.7625 96.4991 84.5161 96.3073 85.2558C96.1154 85.9886 95.341 86.438 94.5808 86.2444Z" fill="url(#paint2_linear_590_1616)"/>
<path d="M236.416 82.6357C228.309 87.7724 216.338 91.5678 201.233 93.7317C192.074 95.0383 181.772 95.7435 170.489 95.7435C168.791 95.7435 167.065 95.7297 165.324 95.6951C164.543 95.6813 163.917 95.0522 163.932 94.2848C163.946 93.5243 164.592 92.9159 165.381 92.9297C167.108 92.9643 168.813 92.9781 170.489 92.9781C181.651 92.9781 191.826 92.2799 200.82 90.994C215.663 88.8785 227.3 85.1245 234.86 80.3197C235.521 79.9049 236.395 80.0847 236.828 80.7207C237.262 81.3637 237.077 82.2209 236.416 82.6357Z" fill="url(#paint3_linear_590_1616)"/>
<path d="M98.5808 5.8902C99.8171 5.86946 101.06 5.86255 102.297 5.86255C142.376 5.86255 183.499 15.403 218.96 33.5921C219.656 33.9516 219.919 34.7812 219.556 35.4587C219.187 36.1362 218.334 36.392 217.638 36.0395C182.618 18.0716 141.921 8.6279 102.304 8.6279C101.075 8.6279 99.8526 8.63481 98.6306 8.65555C97.849 8.66938 97.2025 8.061 97.1883 7.29362C97.167 6.53315 97.7922 5.90403 98.5808 5.8902Z" fill="url(#paint4_linear_590_1616)"/>
<path d="M197.907 85.2073C186.113 87.6754 174.369 88.7331 162.709 88.7331C139.256 88.7331 116.129 84.4607 93.4576 78.764C92.6974 78.5704 92.2427 77.8169 92.4345 77.0772C92.6334 76.3374 93.4079 75.895 94.1681 76.0816C116.719 81.7506 139.611 85.9609 162.709 85.9609C174.198 85.9609 185.736 84.9169 197.31 82.4973C198.078 82.3382 198.831 82.8153 199.001 83.5619C199.165 84.3086 198.674 85.0414 197.907 85.2073Z" fill="url(#paint5_linear_590_1616)"/>
<path d="M190.504 28.8772C198.447 32.0712 206.497 35.4794 213.702 40.4087C214.341 40.8511 214.497 41.7084 214.05 42.3375C213.595 42.9597 212.714 43.1118 212.067 42.6763C205.183 37.9614 197.332 34.6153 189.424 31.442C188.699 31.1517 188.351 30.3428 188.65 29.6376C188.948 28.9186 189.779 28.5868 190.504 28.8772Z" fill="url(#paint6_linear_590_1616)"/>
<path d="M33.2437 40.9616C33.0092 39.8901 32.8884 38.8254 32.8884 37.7815C32.8884 35.1544 33.6487 32.6448 35.0554 30.3703C42.5724 18.5415 66.5445 12.0568 98.5593 11.9669C106.396 11.9669 114.716 12.3748 123.391 13.2321C124.173 13.3081 124.741 13.9856 124.663 14.7461C124.585 15.5066 123.888 16.0596 123.107 15.9836C114.524 15.1402 106.297 14.7323 98.5593 14.7323C66.9423 14.6424 43.5103 21.7079 37.4924 31.7945C36.3201 33.6957 35.7304 35.666 35.7304 37.7815C35.7304 38.6249 35.8228 39.4891 36.0217 40.3809C36.1851 41.1275 35.6949 41.8604 34.9275 42.0263C34.1602 42.1853 33.4071 41.7083 33.2437 40.9616Z" fill="url(#paint7_linear_590_1616)"/>
<path d="M109.273 76.7246C84.9036 71.2561 63.9014 62.3171 53.8764 51.6774C51.7946 49.4582 50.2813 47.2459 49.3363 45.0475C48.569 43.2707 48.1782 41.494 48.1782 39.7587C48.1782 38.5281 48.3772 37.3183 48.7608 36.1568C49.0024 35.4309 49.7981 35.03 50.5513 35.265C51.2973 35.5001 51.7094 36.2744 51.4678 37.0072C51.1694 37.9059 51.0202 38.8185 51.0202 39.7656C51.0202 41.0999 51.3186 42.5033 51.958 43.9897C52.7467 45.8287 54.0682 47.7851 55.9794 49.8246C65.1732 59.69 85.877 68.6981 109.913 74.0422C110.68 74.215 111.156 74.9547 110.979 75.7014C110.801 76.4342 110.034 76.8974 109.273 76.7246Z" fill="url(#paint8_linear_590_1616)"/>
<path d="M101.6 17.9611C102.233 17.9542 102.858 17.9542 103.49 17.9542C125.828 17.9542 148.471 21.4524 169.665 28.3174C170.411 28.5594 170.809 29.3406 170.568 30.0665C170.319 30.7924 169.516 31.1795 168.77 30.9445C147.875 24.1763 125.53 20.7196 103.49 20.7196C102.872 20.7196 102.247 20.7196 101.629 20.7265C100.847 20.7334 100.201 20.1181 100.193 19.3576C100.186 18.5903 100.819 17.9681 101.6 17.9611Z" fill="url(#paint9_linear_590_1616)"/>
<path d="M148.692 29.4787C149.864 29.7483 151.029 30.0387 152.187 30.336C152.947 30.5295 153.402 31.2831 153.203 32.0228C153.004 32.7626 152.23 33.205 151.47 33.0114C150.326 32.7211 149.182 32.4376 148.031 32.168C147.271 31.9883 146.795 31.2416 146.979 30.5019C147.164 29.7552 147.931 29.299 148.692 29.4787Z" fill="url(#paint10_linear_590_1616)"/>
<path d="M72.2073 32.9491C76.3779 29.9211 82.6444 27.695 90.6801 26.34C96.2362 25.4067 102.631 24.902 109.757 24.902C109.821 24.902 109.885 24.902 109.949 24.902C110.73 24.902 111.37 25.5242 111.37 26.2847C111.37 27.0451 110.73 27.6673 109.949 27.6673C109.885 27.6673 109.821 27.6673 109.757 27.6673C102.773 27.6673 96.5275 28.1651 91.1632 29.0638C83.4047 30.3635 77.4934 32.5413 73.9054 35.1614C73.2801 35.6177 72.3849 35.4933 71.916 34.8849C71.4471 34.2765 71.575 33.4054 72.2073 32.9491Z" fill="url(#paint11_linear_590_1616)"/>
<path d="M144.223 75.0308C122.965 74.0076 99.668 69.749 80.9821 58.895C77.2804 56.738 73.6143 54.2008 70.6941 50.8755C70.1826 50.2947 70.2536 49.4237 70.8505 48.9259C71.4473 48.4281 72.3425 48.4973 72.854 49.078C75.4687 52.0577 78.8719 54.4497 82.4386 56.5168C100.499 67.0251 123.391 71.263 144.365 72.2655C145.147 72.3 145.751 72.9499 145.715 73.7173C145.672 74.4847 145.005 75.0723 144.223 75.0308Z" fill="url(#paint12_linear_590_1616)"/>
<path d="M111.348 33.1083C114.062 32.894 116.783 32.7903 119.497 32.7903C129.025 32.7903 138.546 34.09 147.718 36.5304C148.478 36.7309 148.919 37.4914 148.713 38.2311C148.507 38.9708 147.725 39.3995 146.965 39.199C138.027 36.8139 128.755 35.5556 119.497 35.5556C116.854 35.5556 114.211 35.6593 111.575 35.8667C110.794 35.929 110.105 35.3621 110.041 34.6016C109.984 33.8411 110.566 33.1705 111.348 33.1083Z" fill="url(#paint13_linear_590_1616)"/>
<path d="M92.8607 52.6039C90.3384 50.2257 88.8038 47.6677 88.7896 44.9715C88.7896 44.536 88.8322 44.1074 88.9174 43.6787C89.3437 41.5287 90.8216 39.6344 93.1236 38.0927C93.7701 37.6572 94.6511 37.8162 95.0987 38.4453C95.5463 39.0744 95.3829 39.9317 94.7364 40.3672C92.8322 41.66 91.9512 42.9597 91.7026 44.2041C91.6528 44.4599 91.6244 44.7157 91.6244 44.9784C91.6102 46.5616 92.5978 48.5319 94.8287 50.6198C95.39 51.1521 95.4113 52.0232 94.8643 52.5762C94.3243 53.1224 93.4291 53.1362 92.8607 52.6039Z" fill="url(#paint14_linear_590_1616)"/>
<path d="M160.721 67.0252C156.003 67.9655 151.207 68.3803 146.404 68.3803C135.74 68.3803 125.047 66.3408 115.05 63.4648C114.297 63.2505 113.871 62.4831 114.091 61.7503C114.311 61.0175 115.1 60.6027 115.853 60.817C125.679 63.6377 136.116 65.6149 146.404 65.6149C151.037 65.6149 155.641 65.2139 160.145 64.3152C160.912 64.1631 161.665 64.6401 161.822 65.3937C161.978 66.1403 161.488 66.8731 160.721 67.0252Z" fill="url(#paint15_linear_590_1616)"/>
<path d="M11.7444 55.1617H11.6298C10.4882 55.1617 9.56274 56.0872 9.56274 57.2288C9.56274 58.3705 10.4882 59.2959 11.6298 59.2959H11.7444C12.886 59.2959 13.8115 58.3705 13.8115 57.2288C13.8115 56.0872 12.886 55.1617 11.7444 55.1617Z" fill="url(#paint16_linear_590_1616)"/>
<path d="M130.312 89.632H130.197C129.056 89.632 128.13 90.5574 128.13 91.6991C128.13 92.8407 129.056 93.7662 130.197 93.7662H130.312C131.453 93.7662 132.379 92.8407 132.379 91.6991C132.379 90.5574 131.453 89.632 130.312 89.632Z" fill="url(#paint17_linear_590_1616)"/>
<path d="M191.25 13.7922H191.136C189.994 13.7922 189.069 14.7177 189.069 15.8593C189.069 17.001 189.994 17.9264 191.136 17.9264H191.25C192.392 17.9264 193.318 17.001 193.318 15.8593C193.318 14.7177 192.392 13.7922 191.25 13.7922Z" fill="url(#paint18_linear_590_1616)"/>
<path d="M56.6189 59.7593H56.5044C55.3627 59.7593 54.4373 60.6848 54.4373 61.8264C54.4373 62.968 55.3627 63.8935 56.5044 63.8935H56.6189C57.7605 63.8935 58.686 62.968 58.686 61.8264C58.686 60.6848 57.7605 59.7593 56.6189 59.7593Z" fill="url(#paint19_linear_590_1616)"/>
<path d="M162.902 19.3091H162.788C161.646 19.3091 160.72 20.2346 160.72 21.3762C160.72 22.5178 161.646 23.4433 162.788 23.4433H162.902C164.044 23.4433 164.969 22.5178 164.969 21.3762C164.969 20.2346 164.044 19.3091 162.902 19.3091Z" fill="url(#paint20_linear_590_1616)"/>
<path d="M58.5093 8.27527H58.3947C57.2531 8.27527 56.3276 9.20074 56.3276 10.3424C56.3276 11.484 57.2531 12.4095 58.3947 12.4095H58.5093C59.6509 12.4095 60.5764 11.484 60.5764 10.3424C60.5764 9.20074 59.6509 8.27527 58.5093 8.27527Z" fill="url(#paint21_linear_590_1616)"/>
<path d="M72.2073 21.6044H72.0927C70.9511 21.6044 70.0256 22.5298 70.0256 23.6715C70.0256 24.8131 70.9511 25.7386 72.0927 25.7386H72.2073C73.3489 25.7386 74.2744 24.8131 74.2744 23.6715C74.2744 22.5298 73.3489 21.6044 72.2073 21.6044Z" fill="url(#paint22_linear_590_1616)"/>
<path d="M131.725 76.3031H131.611C130.469 76.3031 129.544 77.2286 129.544 78.3702C129.544 79.5118 130.469 80.4373 131.611 80.4373H131.725C132.867 80.4373 133.792 79.5118 133.792 78.3702C133.792 77.2286 132.867 76.3031 131.725 76.3031Z" fill="url(#paint23_linear_590_1616)"/>
<path d="M102.915 34.0139H102.8C101.659 34.0139 100.733 34.9394 100.733 36.081C100.733 37.2227 101.659 38.1481 102.8 38.1481H102.915C104.056 38.1481 104.982 37.2227 104.982 36.081C104.982 34.9394 104.056 34.0139 102.915 34.0139Z" fill="url(#paint24_linear_590_1616)"/>
<path d="M104.805 55.618H104.691C103.549 55.618 102.624 56.5435 102.624 57.6851C102.624 58.8268 103.549 59.7523 104.691 59.7523H104.805C105.947 59.7523 106.872 58.8268 106.872 57.6851C106.872 56.5435 105.947 55.618 104.805 55.618Z" fill="url(#paint25_linear_590_1616)"/>
<path d="M231.805 41.1276H232.85C235.131 41.1276 236.978 39.3301 236.978 37.1109C236.978 34.8917 235.131 33.0942 232.85 33.0942H231.805C229.525 33.0942 227.677 34.8917 227.677 37.1109C227.677 39.3301 229.525 41.1276 231.805 41.1276Z" fill="url(#paint26_linear_590_1616)"/>
<path d="M388 61.9024C388 56.2956 386.679 52.0093 384.043 49.0435C381.4 46.0776 377.62 44.5913 372.689 44.5913C369.343 44.5913 366.43 45.2688 363.943 46.6307C361.456 47.9926 359.531 49.9353 358.167 52.4725C357.378 53.9382 356.824 55.549 356.497 57.3119C355.95 53.9036 354.756 51.1382 352.895 49.0435C350.252 46.0776 346.472 44.5913 341.541 44.5913C338.195 44.5913 335.282 45.2688 332.795 46.6307C330.308 47.9926 328.383 49.9353 327.019 52.4725C325.655 55.0097 324.973 57.9894 324.973 61.4046C324.973 65.1102 325.768 68.235 327.317 70.7999H308.326L329.506 46.4371H324.561H299.288V53.9243H313.207L298.358 70.8759V57.0837C298.358 53.4542 297.32 50.6197 295.253 48.5803C293.185 46.5408 290.322 45.5177 286.67 45.5177C284.205 45.5177 282.052 46.0362 280.204 47.0663C278.357 48.0963 276.73 49.7072 275.323 51.8918V46.3887H266.215V52.3619C265.639 51.1244 264.936 50.0044 264.076 49.0435C261.433 46.0776 257.653 44.5913 252.723 44.5913C249.376 44.5913 246.463 45.2688 243.976 46.6307C241.49 47.9926 239.564 49.9353 238.2 52.4725C237.689 53.4196 237.276 54.429 236.957 55.5006V46.3818H227.649V49.6726C224.552 46.5823 220.253 44.6673 215.493 44.6673C206.953 44.6673 199.876 50.834 198.619 58.8812C197.375 57.4225 195.919 56.2818 194.221 55.4729C192.388 54.6087 190.078 53.7238 187.286 52.8113L184.323 51.8227C182.398 51.1244 180.998 50.4607 180.132 49.8454C179.265 49.2301 178.831 48.3591 178.831 47.246C178.831 45.967 179.457 44.9508 180.707 44.1834C181.957 43.4229 183.72 43.0427 185.979 43.0427C187.812 43.0427 189.745 43.2915 191.798 43.7824C193.844 44.2802 195.762 44.9577 197.539 45.8218L199.13 37.6571C194.697 36.1708 190.363 35.431 186.128 35.431C180.544 35.431 176.181 36.5648 173.048 38.8324C169.915 41.1 168.352 44.211 168.352 48.1655C168.352 50.599 168.941 52.5762 170.121 54.1041C171.3 55.6319 172.707 56.8141 174.348 57.6576C175.982 58.501 178.149 59.3997 180.849 60.3469C181.233 60.4713 181.574 60.5819 181.858 60.6856C182.149 60.7893 182.412 60.8792 182.654 60.9621L184.387 61.5774C186.455 62.2757 187.975 62.9255 188.942 63.527C189.908 64.1216 190.384 64.9788 190.384 66.0919C190.384 67.4538 189.659 68.5461 188.217 69.3688C186.775 70.1915 184.892 70.6063 182.583 70.6063C180.558 70.6063 178.355 70.2883 175.975 69.6454C173.588 69.0093 171.314 68.1106 169.147 66.956L168.281 75.2383C170.114 76.1439 172.288 76.8698 174.817 77.4022C177.346 77.9345 180.004 78.2041 182.803 78.2041C188.487 78.2041 192.92 77.0911 196.096 74.865C198.235 73.3648 199.642 71.4567 200.338 69.1545C203.187 74.5331 208.899 78.2041 215.493 78.2041C220.253 78.2041 224.552 76.2822 227.649 73.1988V78.2041H236.957V67.2879C237.717 69.8528 239.01 72.0236 240.872 73.7726C244.019 76.7385 248.339 78.2249 253.838 78.2249C256.041 78.2249 258.208 77.9898 260.339 77.5128C262.471 77.0427 264.417 76.3721 266.179 75.501L264.659 68.5116C263.337 69.1683 261.796 69.6937 260.041 70.0878C258.279 70.4819 256.588 70.6754 254.961 70.6754C252.275 70.6754 250.144 70.1085 248.559 68.9748C246.975 67.841 245.966 66.1817 245.525 63.9971H266.208V78.2179H275.515V59.7385C276.354 57.8442 277.561 56.2749 279.146 55.0374C280.73 53.7999 282.4 53.1846 284.162 53.1846C285.654 53.1846 286.848 53.6478 287.729 54.5742C288.61 55.5006 289.05 56.7934 289.05 58.4388V78.2249H291.92H296.901H298.358H329.314V73.3786C329.442 73.5099 329.555 73.6482 329.683 73.7726C332.831 76.7385 337.15 78.2249 342.65 78.2249C344.852 78.2249 347.019 77.9898 349.151 77.5128C351.282 77.0427 353.229 76.3721 354.991 75.501L353.47 68.5116C352.149 69.1683 350.607 69.6937 348.852 70.0878C347.09 70.4819 345.399 70.6754 343.772 70.6754C341.087 70.6754 338.955 70.1085 337.371 68.9748C335.786 67.841 334.777 66.1817 334.337 63.9971H356.27C356.717 68.0415 358.224 71.3046 360.831 73.7657C363.979 76.7316 368.298 78.2179 373.798 78.2179C376 78.2179 378.167 77.9829 380.299 77.5059C382.43 77.0358 384.377 76.3652 386.139 75.4941L384.619 68.5046C383.297 69.1614 381.755 69.6868 380 70.0809C378.238 70.475 376.547 70.6685 374.92 70.6685C372.235 70.6685 370.103 70.1016 368.519 68.9678C366.934 67.834 365.925 66.1748 365.485 63.9902H387.922C387.979 63.5547 388 62.8495 388 61.9024ZM222.868 66.4514C221.319 68.4355 218.889 69.7283 216.146 69.7283C211.486 69.7283 207.699 66.0227 207.699 61.4461C207.699 56.8694 211.478 53.1639 216.146 53.1639C218.889 53.1639 221.319 54.4567 222.868 56.4408L222.875 56.4339L227.685 51.5945V71.2838L222.868 66.4514ZM245.483 57.4501C245.788 55.6388 246.548 54.2147 247.756 53.1846C248.964 52.1545 250.52 51.636 252.41 51.636C254.392 51.636 255.977 52.1614 257.163 53.2122C258.35 54.2631 259.01 55.6734 259.145 57.4501H245.483ZM334.287 57.4501C334.593 55.6388 335.353 54.2147 336.561 53.1846C337.769 52.1545 339.325 51.636 341.214 51.636C343.197 51.636 344.781 52.1614 345.968 53.2122C347.154 54.2631 347.815 55.6734 347.95 57.4501H334.287ZM365.428 57.4501C365.734 55.6388 366.494 54.2147 367.702 53.1846C368.91 52.1545 370.465 51.636 372.355 51.636C374.338 51.636 375.922 52.1614 377.109 53.2122C378.295 54.2631 378.956 55.6734 379.091 57.4501H365.428Z" fill="url(#paint27_linear_590_1616)"/>
</g>
<defs>
<linearGradient id="paint0_linear_590_1616" x1="59.7239" y1="91.4031" x2="233.007" y2="91.4031" gradientUnits="userSpaceOnUse">
<stop stop-color="#0971B7"/>
<stop offset="1" stop-color="#2F358B"/>
</linearGradient>
<linearGradient id="paint1_linear_590_1616" x1="-0.203919" y1="15.8586" x2="146.774" y2="15.8586" gradientUnits="userSpaceOnUse">
<stop stop-color="#0971B7"/>
<stop offset="1" stop-color="#2F358B"/>
</linearGradient>
<linearGradient id="paint2_linear_590_1616" x1="15.7785" y1="56.9658" x2="96.5643" y2="56.9658" gradientUnits="userSpaceOnUse">
<stop stop-color="#0971B7"/>
<stop offset="1" stop-color="#2F358B"/>
</linearGradient>
<linearGradient id="paint3_linear_590_1616" x1="163.725" y1="87.9207" x2="237.27" y2="87.9207" gradientUnits="userSpaceOnUse">
<stop stop-color="#0971B7"/>
<stop offset="1" stop-color="#2F358B"/>
</linearGradient>
<linearGradient id="paint4_linear_590_1616" x1="96.974" y1="21.0295" x2="219.925" y2="21.0295" gradientUnits="userSpaceOnUse">
<stop stop-color="#0971B7"/>
<stop offset="1" stop-color="#2F358B"/>
</linearGradient>
<linearGradient id="paint5_linear_590_1616" x1="92.181" y1="82.3842" x2="199.236" y2="82.3842" gradientUnits="userSpaceOnUse">
<stop stop-color="#0971B7"/>
<stop offset="1" stop-color="#2F358B"/>
</linearGradient>
<linearGradient id="paint6_linear_590_1616" x1="188.333" y1="35.8464" x2="214.512" y2="35.8464" gradientUnits="userSpaceOnUse">
<stop stop-color="#0971B7"/>
<stop offset="1" stop-color="#2F358B"/>
</linearGradient>
<linearGradient id="paint7_linear_590_1616" x1="32.6773" y1="27.0159" x2="124.874" y2="27.0159" gradientUnits="userSpaceOnUse">
<stop stop-color="#0971B7"/>
<stop offset="1" stop-color="#2F358B"/>
</linearGradient>
<linearGradient id="paint8_linear_590_1616" x1="47.9644" y1="55.9789" x2="111.217" y2="55.9789" gradientUnits="userSpaceOnUse">
<stop stop-color="#0971B7"/>
<stop offset="1" stop-color="#2F358B"/>
</linearGradient>
<linearGradient id="paint9_linear_590_1616" x1="99.989" y1="24.4795" x2="170.853" y2="24.4795" gradientUnits="userSpaceOnUse">
<stop stop-color="#0971B7"/>
<stop offset="1" stop-color="#2F358B"/>
</linearGradient>
<linearGradient id="paint10_linear_590_1616" x1="146.731" y1="31.2237" x2="153.458" y2="31.2237" gradientUnits="userSpaceOnUse">
<stop stop-color="#0971B7"/>
<stop offset="1" stop-color="#2F358B"/>
</linearGradient>
<linearGradient id="paint11_linear_590_1616" x1="71.4274" y1="30.1696" x2="111.57" y2="30.1696" gradientUnits="userSpaceOnUse">
<stop stop-color="#0971B7"/>
<stop offset="1" stop-color="#2F358B"/>
</linearGradient>
<linearGradient id="paint12_linear_590_1616" x1="70.146" y1="61.8219" x2="145.921" y2="61.8219" gradientUnits="userSpaceOnUse">
<stop stop-color="#0971B7"/>
<stop offset="1" stop-color="#2F358B"/>
</linearGradient>
<linearGradient id="paint13_linear_590_1616" x1="109.832" y1="36.0165" x2="148.968" y2="36.0165" gradientUnits="userSpaceOnUse">
<stop stop-color="#0971B7"/>
<stop offset="1" stop-color="#2F358B"/>
</linearGradient>
<linearGradient id="paint14_linear_590_1616" x1="88.5856" y1="45.4073" x2="95.5634" y2="45.4073" gradientUnits="userSpaceOnUse">
<stop stop-color="#0971B7"/>
<stop offset="1" stop-color="#2F358B"/>
</linearGradient>
<linearGradient id="paint15_linear_590_1616" x1="113.821" y1="64.5701" x2="162.06" y2="64.5701" gradientUnits="userSpaceOnUse">
<stop stop-color="#0971B7"/>
<stop offset="1" stop-color="#2F358B"/>
</linearGradient>
<linearGradient id="paint16_linear_590_1616" x1="9.56518" y1="57.2571" x2="13.8161" y2="57.2571" gradientUnits="userSpaceOnUse">
<stop stop-color="#0971B7"/>
<stop offset="1" stop-color="#2F358B"/>
</linearGradient>
<linearGradient id="paint17_linear_590_1616" x1="128.132" y1="91.7302" x2="132.383" y2="91.7302" gradientUnits="userSpaceOnUse">
<stop stop-color="#0971B7"/>
<stop offset="1" stop-color="#2F358B"/>
</linearGradient>
<linearGradient id="paint18_linear_590_1616" x1="189.069" y1="15.8889" x2="193.32" y2="15.8889" gradientUnits="userSpaceOnUse">
<stop stop-color="#0971B7"/>
<stop offset="1" stop-color="#2F358B"/>
</linearGradient>
<linearGradient id="paint19_linear_590_1616" x1="54.4405" y1="61.8535" x2="58.6923" y2="61.8535" gradientUnits="userSpaceOnUse">
<stop stop-color="#0971B7"/>
<stop offset="1" stop-color="#2F358B"/>
</linearGradient>
<linearGradient id="paint20_linear_590_1616" x1="160.726" y1="21.4048" x2="164.978" y2="21.4048" gradientUnits="userSpaceOnUse">
<stop stop-color="#0971B7"/>
<stop offset="1" stop-color="#2F358B"/>
</linearGradient>
<linearGradient id="paint21_linear_590_1616" x1="56.33" y1="10.3738" x2="60.5818" y2="10.3738" gradientUnits="userSpaceOnUse">
<stop stop-color="#0971B7"/>
<stop offset="1" stop-color="#2F358B"/>
</linearGradient>
<linearGradient id="paint22_linear_590_1616" x1="70.0291" y1="23.7026" x2="74.2805" y2="23.7026" gradientUnits="userSpaceOnUse">
<stop stop-color="#0971B7"/>
<stop offset="1" stop-color="#2F358B"/>
</linearGradient>
<linearGradient id="paint23_linear_590_1616" x1="129.549" y1="78.4004" x2="133.801" y2="78.4004" gradientUnits="userSpaceOnUse">
<stop stop-color="#0971B7"/>
<stop offset="1" stop-color="#2F358B"/>
</linearGradient>
<linearGradient id="paint24_linear_590_1616" x1="100.734" y1="36.1137" x2="104.985" y2="36.1137" gradientUnits="userSpaceOnUse">
<stop stop-color="#0971B7"/>
<stop offset="1" stop-color="#2F358B"/>
</linearGradient>
<linearGradient id="paint25_linear_590_1616" x1="102.624" y1="57.7165" x2="106.876" y2="57.7165" gradientUnits="userSpaceOnUse">
<stop stop-color="#0971B7"/>
<stop offset="1" stop-color="#2F358B"/>
</linearGradient>
<linearGradient id="paint26_linear_590_1616" x1="227.676" y1="37.109" x2="236.981" y2="37.109" gradientUnits="userSpaceOnUse">
<stop stop-color="#0971B7"/>
<stop offset="1" stop-color="#2F358B"/>
</linearGradient>
<linearGradient id="paint27_linear_590_1616" x1="168.31" y1="56.8335" x2="388.002" y2="56.8335" gradientUnits="userSpaceOnUse">
<stop stop-color="#0971B7"/>
<stop offset="1" stop-color="#2F358B"/>
</linearGradient>
<clipPath id="clip0_590_1616">
<rect width="388" height="102" fill="white"/>
</clipPath>
</defs>
</svg>
