<svg width="85" height="18" viewBox="0 0 85 18" fill="none" xmlns="http://www.w3.org/2000/svg">
<path d="M84.9999 11.2755C84.9999 9.07673 84.489 7.39582 83.47 6.23275C82.4482 5.06968 80.9869 4.48678 79.0806 4.48678C77.7869 4.48678 76.6608 4.75247 75.6994 5.28656C74.738 5.82066 73.9937 6.58249 73.4663 7.57747C73.1614 8.15223 72.9472 8.78392 72.8208 9.47526C72.6093 8.13867 72.1479 7.05422 71.4282 6.23275C70.4064 5.06968 68.9451 4.48678 67.0389 4.48678C65.7452 4.48678 64.619 4.75247 63.6576 5.28656C62.6963 5.82066 61.9519 6.58249 61.4245 7.57747C60.8972 8.57245 60.6335 9.74095 60.6335 11.0802C60.6335 12.5334 60.9411 13.7588 61.5399 14.7647H54.1978L62.3859 5.21065H60.4742H50.704V8.14681H56.0849L50.3441 14.7945V9.38579C50.3441 7.96245 49.9431 6.85089 49.1438 6.0511C48.3445 5.25132 47.2376 4.85007 45.8257 4.85007C44.8726 4.85007 44.0404 5.05341 43.3262 5.45737C42.612 5.86133 41.983 6.49302 41.4392 7.34973V5.19168H37.9178V7.53409C37.6954 7.0488 37.4234 6.6096 37.0911 6.23275C36.0693 5.06968 34.608 4.48678 32.7018 4.48678C31.4081 4.48678 30.2819 4.75247 29.3205 5.28656C28.3592 5.82066 27.6148 6.58249 27.0874 7.57747C26.8896 7.94889 26.7303 8.34472 26.6067 8.76494V5.18896H23.0085V6.47946C21.8109 5.26759 20.1491 4.5166 18.3088 4.5166C15.0072 4.5166 12.2714 6.93493 11.7853 10.0907C11.3046 9.51864 10.7415 9.0713 10.085 8.7541C9.37636 8.41521 8.48367 8.06818 7.4042 7.71032L6.2588 7.32262C5.51443 7.0488 4.97332 6.78853 4.63822 6.54724C4.30311 6.30595 4.13556 5.96435 4.13556 5.52785C4.13556 5.0263 4.37728 4.62776 4.8607 4.32683C5.34413 4.0286 6.02533 3.87949 6.8988 3.87949C7.60746 3.87949 8.35458 3.97709 9.14839 4.16958C9.93945 4.36478 10.6811 4.63047 11.3678 4.96936L11.983 1.76752C10.2691 1.18463 8.59354 0.894535 6.95648 0.894535C4.79753 0.894535 3.11102 1.33916 1.89971 2.22841C0.688391 3.11766 0.0841056 4.33767 0.0841056 5.88844C0.0841056 6.84275 0.312087 7.61814 0.768048 8.2173C1.22401 8.81646 1.76786 9.28006 2.40236 9.61082C3.03412 9.94158 3.87187 10.294 4.91564 10.6654C5.06396 10.7142 5.19581 10.7576 5.30568 10.7983C5.4183 10.839 5.51992 10.8742 5.61331 10.9067L6.28352 11.148C7.08282 11.4219 7.67063 11.6767 8.04419 11.9126C8.41775 12.1457 8.60178 12.4819 8.60178 12.9184C8.60178 13.4525 8.32161 13.8808 7.76402 14.2035C7.20643 14.5261 6.47854 14.6888 5.58585 14.6888C4.80303 14.6888 3.95153 14.5641 3.03137 14.3119C2.10846 14.0625 1.2295 13.71 0.391745 13.2573L0.0566406 16.5052C0.765302 16.8604 1.60581 17.145 2.58365 17.3538C3.56149 17.5626 4.58878 17.6683 5.671 17.6683C7.8684 17.6683 9.58237 17.2318 10.8102 16.3588C11.6369 15.7705 12.1808 15.0222 12.45 14.1194C13.5514 16.2287 15.7598 17.6683 18.3088 17.6683C20.1491 17.6683 21.8109 16.9146 23.0085 15.7054V17.6683H26.6067V13.3874C26.9006 14.3933 27.4005 15.2445 28.1202 15.9305C29.337 17.0935 31.007 17.6764 33.133 17.6764C33.9845 17.6764 34.8223 17.5843 35.6463 17.3972C36.4703 17.2128 37.2229 16.9498 37.9041 16.6082L37.3163 13.8673C36.8054 14.1248 36.2094 14.3309 35.5309 14.4854C34.8497 14.64 34.196 14.7159 33.567 14.7159C32.5287 14.7159 31.7047 14.4936 31.0922 14.0489C30.4796 13.6043 30.0896 12.9536 29.9193 12.0969H37.9151V17.6737H41.5133V10.4269C41.8375 9.68402 42.3044 9.06859 42.9169 8.5833C43.5295 8.09801 44.1749 7.85672 44.8561 7.85672C45.433 7.85672 45.8944 8.03836 46.235 8.40165C46.5756 8.76495 46.7459 9.27193 46.7459 9.91717V17.6764H47.8556H49.7811H50.3441H62.3117V15.7759C62.3612 15.8274 62.4051 15.8817 62.4546 15.9305C63.6714 17.0935 65.3414 17.6764 67.4674 17.6764C68.3189 17.6764 69.1566 17.5843 69.9807 17.3972C70.8047 17.2128 71.5573 16.9498 72.2385 16.6082L71.6507 13.8673C71.1398 14.1248 70.5437 14.3309 69.8653 14.4854C69.1841 14.64 68.5304 14.7159 67.9014 14.7159C66.8631 14.7159 66.0391 14.4936 65.4266 14.0489C64.814 13.6043 64.424 12.9536 64.2537 12.0969H72.7329C72.906 13.6829 73.4883 14.9626 74.4963 15.9277C75.7131 17.0908 77.3832 17.6737 79.5091 17.6737C80.3606 17.6737 81.1984 17.5815 82.0224 17.3945C82.8464 17.2101 83.599 16.9471 84.2802 16.6055L83.6925 13.8646C83.1816 14.1221 82.5855 14.3282 81.9071 14.4827C81.2259 14.6373 80.5721 14.7132 79.9431 14.7132C78.9049 14.7132 78.0808 14.4909 77.4683 14.0462C76.8558 13.6016 76.4657 12.9509 76.2954 12.0942H84.9697C84.9917 11.9234 84.9999 11.6469 84.9999 11.2755ZM21.1599 13.0594C20.5611 13.8375 19.6217 14.3444 18.5615 14.3444C16.7596 14.3444 15.2956 12.8913 15.2956 11.0965C15.2956 9.30175 16.7569 7.84858 18.5615 7.84858C19.6217 7.84858 20.5611 8.35556 21.1599 9.13366L21.1627 9.13095L23.0222 7.23316V14.9545L21.1599 13.0594ZM29.9028 9.52948C30.0209 8.81917 30.3148 8.26067 30.7818 7.85672C31.2487 7.45276 31.8503 7.24942 32.5809 7.24942C33.3473 7.24942 33.9598 7.45547 34.4185 7.86756C34.8772 8.27965 35.1326 8.83272 35.1848 9.52948H29.9028ZM64.2345 9.52948C64.3526 8.81917 64.6465 8.26067 65.1134 7.85672C65.5804 7.45276 66.1819 7.24942 66.9125 7.24942C67.6789 7.24942 68.2914 7.45547 68.7501 7.86756C69.2088 8.27965 69.4643 8.83272 69.5165 9.52948H64.2345ZM76.2735 9.52948C76.3916 8.81917 76.6855 8.26067 77.1524 7.85672C77.6194 7.45276 78.2209 7.24942 78.9516 7.24942C79.7179 7.24942 80.3304 7.45547 80.7891 7.86756C81.2478 8.27965 81.5033 8.83272 81.5555 9.52948H76.2735Z" fill="url(#paint0_linear_1360_45)"/>
<defs>
<linearGradient id="paint0_linear_1360_45" x1="0.068122" y1="9.28765" x2="85.0003" y2="9.28765" gradientUnits="userSpaceOnUse">
<stop stop-color="#0971B7"/>
<stop offset="1" stop-color="#2F358B"/>
</linearGradient>
</defs>
</svg>
